<svg width="40" height="16" viewBox="0 0 40 16" fill="none" xmlns="http://www.w3.org/2000/svg">
<path d="M13.7456 4.49268C14.1186 3.94954 14.7353 3.625 15.3942 3.625H37.2641C38.2964 3.625 39.0201 4.64339 38.6807 5.61824L36.3422 12.3346C36.0623 13.1384 35.3044 13.677 34.4534 13.677H7.43745L13.7456 4.49268Z" fill="url(#paint0_linear_15615_115620)"/>
<path d="M17.0253 11.5993C16.3701 11.5993 15.8689 11.4733 15.5217 11.2213C15.1801 10.9693 15.0093 10.5913 15.0093 10.0873C15.0093 10.0145 15.0149 9.93332 15.0261 9.84373C15.0373 9.74853 15.0569 9.63093 15.0849 9.49093H16.5213C16.4989 9.60293 16.4849 9.69253 16.4793 9.75973C16.4737 9.82693 16.4709 9.88013 16.4709 9.91932C16.4709 10.0929 16.5185 10.2217 16.6137 10.3057C16.7145 10.3841 16.8713 10.4233 17.0841 10.4233C17.3249 10.4233 17.5237 10.3477 17.6805 10.1965C17.8429 10.0453 17.9521 9.81293 18.0081 9.49933L18.6717 5.72775H20.1753L19.5117 9.53293C19.4277 10.0145 19.2737 10.4093 19.0497 10.7173C18.8313 11.0197 18.5513 11.2437 18.2097 11.3893C17.8681 11.5293 17.4733 11.5993 17.0253 11.5993Z" fill="#3D1F64"/>
<path d="M22.1147 11.4985L22.5179 9.21373L20.8715 5.72775H22.4927L23.4587 7.89494H23.5007L25.189 5.72775H26.8774L24.0214 9.21373L23.6183 11.4985H22.1147Z" fill="#3D1F64"/>
<path d="M26.5366 11.4985L26.7886 10.0957H28.2418L27.9898 11.4985H26.5366Z" fill="#3D1F64"/>
<path d="M31.3696 11.5993C30.9384 11.5993 30.5716 11.5321 30.2692 11.3977C29.9668 11.2633 29.7372 11.0533 29.5804 10.7677C29.4236 10.4821 29.3452 10.1125 29.3452 9.65893C29.3452 9.51893 29.3508 9.37053 29.362 9.21373C29.3788 9.05693 29.404 8.89173 29.4376 8.71813C29.572 7.94534 29.7568 7.33494 29.992 6.88695C30.2328 6.43895 30.5352 6.11695 30.8992 5.92095C31.2632 5.72495 31.6916 5.62695 32.1844 5.62695C32.5876 5.62695 32.9292 5.68575 33.2092 5.80335C33.4891 5.91535 33.7019 6.08335 33.8475 6.30735C33.9987 6.52575 34.0743 6.78895 34.0743 7.09694C34.0743 7.15854 34.0715 7.22574 34.0659 7.29854C34.0603 7.36574 34.0519 7.43574 34.0407 7.50854H32.7472C32.7584 7.45814 32.764 7.41334 32.764 7.37414C32.7696 7.32934 32.7724 7.29014 32.7724 7.25654C32.7724 7.04374 32.7164 6.88695 32.6044 6.78615C32.498 6.67975 32.3356 6.62655 32.1172 6.62655C31.8708 6.62655 31.672 6.68815 31.5208 6.81135C31.3696 6.93454 31.2492 7.11934 31.1596 7.36574C31.07 7.60654 30.9916 7.90894 30.9244 8.27294C31.0084 8.20014 31.112 8.13014 31.2352 8.06294C31.364 7.99014 31.5068 7.93134 31.6636 7.88654C31.826 7.83614 31.994 7.81094 32.1676 7.81094C32.5204 7.81094 32.8228 7.86974 33.0748 7.98734C33.3267 8.10494 33.5199 8.27574 33.6543 8.49973C33.7943 8.72373 33.8643 8.99253 33.8643 9.30613C33.8643 9.65893 33.7999 9.97813 33.6711 10.2637C33.5479 10.5437 33.3743 10.7845 33.1504 10.9861C32.9264 11.1821 32.6632 11.3333 32.3608 11.4397C32.0584 11.5461 31.728 11.5993 31.3696 11.5993ZM31.42 10.5997C31.5824 10.5997 31.728 10.5689 31.8568 10.5073C31.9912 10.4401 32.1004 10.3561 32.1844 10.2553C32.2796 10.1545 32.3524 10.0341 32.4028 9.89412C32.4532 9.74853 32.4784 9.59733 32.4784 9.44053C32.4784 9.29493 32.4504 9.16893 32.3944 9.06253C32.344 8.95613 32.2656 8.87493 32.1592 8.81893C32.0528 8.76293 31.9184 8.73493 31.756 8.73493C31.5936 8.73493 31.4452 8.76573 31.3108 8.82733C31.1764 8.88333 31.0644 8.96453 30.9748 9.07093C30.8796 9.17173 30.8068 9.29213 30.7564 9.43213C30.7116 9.57213 30.6892 9.72613 30.6892 9.89412C30.6892 10.0397 30.7144 10.1657 30.7648 10.2721C30.8152 10.3785 30.8936 10.4597 31 10.5157C31.112 10.5717 31.252 10.5997 31.42 10.5997Z" fill="#3D1F64"/>
<path d="M7.53862 3.69241V1L10.0515 2.61545L7.53862 3.69241Z" fill="url(#paint1_linear_15615_115620)"/>
<path d="M7.53862 3.69241V1L5.0257 2.61545L7.53862 3.69241Z" fill="url(#paint2_linear_15615_115620)"/>
<path d="M11.0567 3.1543L7.53862 4.76975V6.92368L12.5645 4.23126L11.0567 3.1543Z" fill="url(#paint3_linear_15615_115620)"/>
<path d="M4.02053 3.1543L7.53862 4.76975V6.92368L2.51278 4.23126L4.02053 3.1543Z" fill="url(#paint4_linear_15615_115620)"/>
<path d="M7.53876 8.00043L1.50775 4.76953L0 5.8465L7.53876 10.1544V8.00043Z" fill="url(#paint5_linear_15615_115620)"/>
<path d="M7.53848 8.00043L13.5695 4.76953L15.0772 5.8465L7.53848 10.1544V8.00043Z" fill="url(#paint6_linear_15615_115620)"/>
<path d="M7.53876 14.9999V10.1536L0 5.8457L7.53876 14.9999Z" fill="url(#paint7_linear_15615_115620)"/>
<path d="M7.53848 14.9999V10.1536L15.0772 5.8457L7.53848 14.9999Z" fill="url(#paint8_linear_15615_115620)"/>
<defs>
<linearGradient id="paint0_linear_15615_115620" x1="23.6245" y1="14.5624" x2="15.3121" y2="3.625" gradientUnits="userSpaceOnUse">
<stop stop-color="#B095E9"/>
<stop offset="0.291667" stop-color="#BBA4EE"/>
<stop offset="1" stop-color="#DBCFF5"/>
</linearGradient>
<linearGradient id="paint1_linear_15615_115620" x1="7.16168" y1="3.26163" x2="9.2139" y2="1.83764" gradientUnits="userSpaceOnUse">
<stop stop-color="#7E3EE7"/>
<stop offset="1" stop-color="#DAC4FF"/>
</linearGradient>
<linearGradient id="paint2_linear_15615_115620" x1="7.53862" y1="2.25646" x2="5.86334" y2="1.83764" gradientUnits="userSpaceOnUse">
<stop stop-color="#8E5BE2"/>
<stop offset="1" stop-color="#DFCBFF"/>
</linearGradient>
<linearGradient id="paint3_linear_15615_115620" x1="7.53862" y1="5.60668" x2="11.7268" y2="3.51258" gradientUnits="userSpaceOnUse">
<stop stop-color="#6B34E0"/>
<stop offset="1" stop-color="#CB98FF"/>
</linearGradient>
<linearGradient id="paint4_linear_15615_115620" x1="3.35042" y1="3.51258" x2="7.53862" y2="5.60668" gradientUnits="userSpaceOnUse">
<stop stop-color="#C2A6FF"/>
<stop offset="1" stop-color="#9971EF"/>
</linearGradient>
<linearGradient id="paint5_linear_15615_115620" x1="0.83764" y1="5.60717" x2="7.53876" y2="8.95773" gradientUnits="userSpaceOnUse">
<stop stop-color="#B486FF"/>
<stop offset="1" stop-color="#8A4FEB"/>
</linearGradient>
<linearGradient id="paint6_linear_15615_115620" x1="7.53848" y1="8.95773" x2="14.2396" y2="5.18835" gradientUnits="userSpaceOnUse">
<stop stop-color="#6818EA"/>
<stop offset="1" stop-color="#E3D2FF"/>
</linearGradient>
<linearGradient id="paint7_linear_15615_115620" x1="5.02584" y1="8.85311" x2="7.53876" y2="14.1931" gradientUnits="userSpaceOnUse">
<stop stop-color="#6928D3"/>
<stop offset="1" stop-color="#DFCBFF"/>
</linearGradient>
<linearGradient id="paint8_linear_15615_115620" x1="10.4702" y1="11.4703" x2="8.66929" y2="9.66956" gradientUnits="userSpaceOnUse">
<stop stop-color="#D9C7FF"/>
<stop offset="1" stop-color="#672FE0"/>
</linearGradient>
</defs>
</svg>
