<svg width="16" height="16" viewBox="0 0 16 16" fill="none" xmlns="http://www.w3.org/2000/svg">
<path d="M9.675 1.14495C8.63851 0.546528 7.36149 0.546528 6.325 1.14495L2.90085 3.12188C1.86436 3.7203 1.22585 4.82623 1.22585 6.02307V9.97693C1.22585 11.1738 1.86436 12.2797 2.90085 12.8781L6.325 14.8551C7.36149 15.4535 8.63851 15.4535 9.675 14.8551L13.0991 12.8781C14.1356 12.2797 14.7741 11.1738 14.7741 9.97693V6.02307C14.7741 4.82623 14.1356 3.7203 13.0991 3.12188L9.675 1.14495Z" fill="#33375E" stroke="url(#paint0_linear_18019_54172)" stroke-width="0.7"/>
<mask id="path-2-inside-1_18019_54172" fill="white">
<path fill-rule="evenodd" clip-rule="evenodd" d="M4.77641 4.20532L6.39421 4.20532C6.46071 4.20532 6.52287 4.23837 6.56006 4.29351L7.85353 6.21144C7.93298 6.32925 8.10647 6.32899 8.18552 6.21095L9.4707 4.29188C9.50781 4.23646 9.57013 4.20319 9.63684 4.20319L11.203 4.20319C11.3667 4.20319 11.4611 4.38905 11.3645 4.52119L8.17373 8.88913C8.09418 8.99802 7.93186 8.99856 7.85155 8.8902L4.61578 4.52438C4.51796 4.39239 4.61214 4.20532 4.77641 4.20532ZM8.94686 12.4006H7.14839C7.08416 12.4006 7.0239 12.3697 6.98643 12.3177L3.04166 6.8338C2.99998 6.77586 2.99244 6.70001 3.02187 6.63482L3.71762 5.09379C3.78092 4.95358 3.97197 4.93383 4.06198 5.05819L7.84987 10.2915C7.93024 10.4025 8.09622 10.4012 8.17537 10.2889L11.8782 5.03434C11.9662 4.90941 12.1559 4.92487 12.2219 5.06235L12.9768 6.63458C13.0081 6.69978 13.0016 6.7769 12.96 6.83621L9.11092 12.3153C9.07336 12.3688 9.01212 12.4006 8.94686 12.4006Z"/>
</mask>
<path fill-rule="evenodd" clip-rule="evenodd" d="M4.77641 4.20532L6.39421 4.20532C6.46071 4.20532 6.52287 4.23837 6.56006 4.29351L7.85353 6.21144C7.93298 6.32925 8.10647 6.32899 8.18552 6.21095L9.4707 4.29188C9.50781 4.23646 9.57013 4.20319 9.63684 4.20319L11.203 4.20319C11.3667 4.20319 11.4611 4.38905 11.3645 4.52119L8.17373 8.88913C8.09418 8.99802 7.93186 8.99856 7.85155 8.8902L4.61578 4.52438C4.51796 4.39239 4.61214 4.20532 4.77641 4.20532ZM8.94686 12.4006H7.14839C7.08416 12.4006 7.0239 12.3697 6.98643 12.3177L3.04166 6.8338C2.99998 6.77586 2.99244 6.70001 3.02187 6.63482L3.71762 5.09379C3.78092 4.95358 3.97197 4.93383 4.06198 5.05819L7.84987 10.2915C7.93024 10.4025 8.09622 10.4012 8.17537 10.2889L11.8782 5.03434C11.9662 4.90941 12.1559 4.92487 12.2219 5.06235L12.9768 6.63458C13.0081 6.69978 13.0016 6.7769 12.96 6.83621L9.11092 12.3153C9.07336 12.3688 9.01212 12.4006 8.94686 12.4006Z" fill="url(#paint1_linear_18019_54172)"/>
<path d="M6.39421 4.20532L6.39421 4.29532L6.39421 4.29532L6.39421 4.20532ZM4.77641 4.20532L4.77641 4.11532L4.77641 4.11532L4.77641 4.20532ZM6.56006 4.29351L6.48544 4.34384L6.48544 4.34384L6.56006 4.29351ZM7.85353 6.21144L7.77891 6.26176L7.85353 6.21144ZM8.18552 6.21095L8.11074 6.16087L8.18552 6.21095ZM9.4707 4.29188L9.54548 4.34196L9.54548 4.34196L9.4707 4.29188ZM9.63684 4.20319L9.63684 4.29319H9.63684L9.63684 4.20319ZM11.203 4.20319L11.203 4.29319H11.203L11.203 4.20319ZM11.3645 4.52119L11.2919 4.4681L11.2919 4.4681L11.3645 4.52119ZM8.17373 8.88913L8.2464 8.94222L8.2464 8.94222L8.17373 8.88913ZM7.85155 8.8902L7.77924 8.94379L7.77924 8.94379L7.85155 8.8902ZM4.61578 4.52438L4.54348 4.57797L4.54348 4.57797L4.61578 4.52438ZM6.98643 12.3177L7.05949 12.2651L7.05949 12.2651L6.98643 12.3177ZM3.04166 6.8338L2.9686 6.88636L2.9686 6.88636L3.04166 6.8338ZM3.02187 6.63482L3.1039 6.67185L3.1039 6.67185L3.02187 6.63482ZM3.71762 5.09379L3.63559 5.05676L3.63559 5.05676L3.71762 5.09379ZM4.06198 5.05819L3.98908 5.11096L3.98908 5.11096L4.06198 5.05819ZM7.84987 10.2915L7.77696 10.3442L7.77696 10.3442L7.84987 10.2915ZM8.17537 10.2889L8.1018 10.237L8.1018 10.237L8.17537 10.2889ZM11.8782 5.03434L11.8046 4.9825L11.8046 4.9825L11.8782 5.03434ZM12.2219 5.06235L12.303 5.0234L12.303 5.0234L12.2219 5.06235ZM12.9768 6.63458L12.8956 6.67354L12.8956 6.67354L12.9768 6.63458ZM12.96 6.83621L12.8863 6.78447L12.8863 6.78447L12.96 6.83621ZM9.11092 12.3153L9.03727 12.2636L9.03727 12.2636L9.11092 12.3153ZM6.39421 4.11532L4.77641 4.11532L4.77641 4.29532L6.39421 4.29532L6.39421 4.11532ZM6.63468 4.24319C6.58076 4.16325 6.49064 4.11532 6.39421 4.11532L6.39421 4.29532C6.43079 4.29532 6.46498 4.3135 6.48544 4.34384L6.63468 4.24319ZM7.92815 6.16112L6.63468 4.24319L6.48544 4.34384L7.77891 6.26176L7.92815 6.16112ZM8.11074 6.16087C8.06729 6.22576 7.97187 6.22594 7.92815 6.16112L7.77891 6.26176C7.89409 6.43255 8.14566 6.43222 8.2603 6.26103L8.11074 6.16087ZM9.39591 4.2418L8.11074 6.16087L8.2603 6.26103L9.54548 4.34196L9.39591 4.2418ZM9.63684 4.11319C9.5401 4.11319 9.44974 4.16143 9.39591 4.2418L9.54548 4.34196C9.56588 4.31149 9.60015 4.29319 9.63684 4.29319L9.63684 4.11319ZM11.203 4.11319L9.63684 4.11319L9.63684 4.29319L11.203 4.29319L11.203 4.11319ZM11.4372 4.57428C11.5772 4.38265 11.4403 4.11319 11.203 4.11319L11.203 4.29319C11.293 4.29319 11.3449 4.39545 11.2919 4.4681L11.4372 4.57428ZM8.2464 8.94222L11.4372 4.57428L11.2919 4.4681L8.10105 8.83604L8.2464 8.94222ZM7.77924 8.94379C7.89567 9.10088 8.13104 9.10013 8.2464 8.94222L8.10105 8.83604C8.05732 8.8959 7.96804 8.89623 7.92385 8.83661L7.77924 8.94379ZM4.54348 4.57797L7.77924 8.94379L7.92385 8.83661L4.68809 4.47079L4.54348 4.57797ZM4.77641 4.11532C4.53818 4.11532 4.40165 4.38661 4.54348 4.57797L4.68809 4.47079C4.63427 4.39817 4.68609 4.29532 4.77641 4.29532L4.77641 4.11532ZM7.14839 12.4906H8.94686V12.3106H7.14839V12.4906ZM6.91337 12.3702C6.96778 12.4458 7.05524 12.4906 7.14839 12.4906V12.3106C7.11307 12.3106 7.08003 12.2936 7.05949 12.2651L6.91337 12.3702ZM2.9686 6.88636L6.91337 12.3702L7.05949 12.2651L3.11472 6.78125L2.9686 6.88636ZM2.93984 6.59779C2.89721 6.69222 2.90809 6.80223 2.9686 6.88636L3.11472 6.78125C3.09188 6.74949 3.08767 6.7078 3.1039 6.67185L2.93984 6.59779ZM3.63559 5.05676L2.93984 6.59779L3.1039 6.67185L3.79965 5.13082L3.63559 5.05676ZM4.13489 5.00542C4.00408 4.8247 3.72717 4.85392 3.63559 5.05676L3.79965 5.13082C3.83468 5.05324 3.93986 5.04296 3.98908 5.11096L4.13489 5.00542ZM7.92277 10.2387L4.13489 5.00542L3.98908 5.11096L7.77696 10.3442L7.92277 10.2387ZM8.1018 10.237C8.05804 10.2991 7.96674 10.2994 7.92277 10.2387L7.77696 10.3442C7.89375 10.5056 8.13441 10.5032 8.24894 10.3407L8.1018 10.237ZM11.8046 4.9825L8.1018 10.237L8.24894 10.3407L11.9517 5.08618L11.8046 4.9825ZM12.303 5.0234C12.2071 4.82358 11.932 4.80175 11.8046 4.9825L11.9517 5.08618C12.0004 5.01707 12.1047 5.02615 12.1408 5.10131L12.303 5.0234ZM13.0579 6.59563L12.303 5.0234L12.1408 5.10131L12.8956 6.67354L13.0579 6.59563ZM13.0336 6.88794C13.094 6.80206 13.1033 6.69027 13.0579 6.59563L12.8956 6.67354C12.9128 6.7093 12.9093 6.75174 12.8863 6.78447L13.0336 6.88794ZM9.18456 12.367L13.0336 6.88794L12.8863 6.78447L9.03727 12.2636L9.18456 12.367ZM8.94686 12.4906C9.04148 12.4906 9.13017 12.4444 9.18456 12.367L9.03727 12.2636C9.01654 12.2931 8.98277 12.3106 8.94686 12.3106V12.4906Z" fill="white" mask="url(#path-2-inside-1_18019_54172)"/>
<path d="M11.1144 13.4031L13.3382 11.7001C13.4515 11.6128 13.5668 11.5139 13.6842 11.4036C13.8015 11.2933 13.8731 11.1646 13.8989 11.0175C13.928 10.852 13.8899 10.7233 13.7847 10.6314C13.6803 10.5349 13.5464 10.4866 13.3831 10.4866C13.1871 10.4866 13.0226 10.5464 12.8896 10.6659C12.7613 10.7854 12.6748 10.9325 12.6302 11.1072L11.5935 11.0313C11.6519 10.7785 11.7438 10.5602 11.8694 10.3763C11.9958 10.1879 12.1469 10.0316 12.3227 9.90747C12.4984 9.78337 12.6942 9.69144 12.91 9.63168C13.1313 9.56733 13.3633 9.53516 13.606 9.53516C13.83 9.53516 14.0343 9.56733 14.219 9.63168C14.4046 9.69144 14.5588 9.78337 14.6817 9.90747C14.8054 10.027 14.8907 10.1787 14.9378 10.3625C14.9896 10.5464 14.9941 10.7601 14.9513 11.0037C14.9239 11.16 14.8826 11.3025 14.8274 11.4312C14.7729 11.5553 14.7061 11.6702 14.6269 11.7759C14.5531 11.8771 14.4689 11.9713 14.3743 12.0586C14.2796 12.146 14.1784 12.231 14.0705 12.3137L12.3418 13.5892H14.5398L14.3801 14.4993H10.9221L11.1144 13.4031Z" fill="white"/>
<path fill-rule="evenodd" clip-rule="evenodd" d="M10.5301 13.3164C10.5497 13.2045 10.6166 13.098 10.7142 13.0233L12.4485 11.6951L11.2532 11.6077C11.0385 11.592 10.9062 11.4077 10.9557 11.1933L11.0003 11.0003C11.0728 10.6859 11.1935 10.386 11.3775 10.1158C11.5514 9.85722 11.7665 9.63244 12.0232 9.45121C12.2736 9.27443 12.5467 9.14769 12.8353 9.06727C13.122 8.98437 13.4144 8.94531 13.7099 8.94531C13.9907 8.94531 14.2562 8.98548 14.5016 9.07017C14.7532 9.1521 14.9725 9.28078 15.1506 9.45938C15.3374 9.64126 15.4621 9.86777 15.5294 10.1268C15.605 10.3996 15.6056 10.6969 15.5516 11.0049C15.5171 11.2011 15.4631 11.3927 15.3845 11.5757L15.3824 11.5807C15.308 11.7503 15.2146 11.9121 15.1014 12.0639C14.9987 12.2042 14.8821 12.3343 14.7525 12.4538C14.6398 12.5579 14.5205 12.6579 14.3951 12.7541L14.3836 12.7629L14.0629 12.9994H14.8437C15.0646 12.9994 15.2127 13.1758 15.1746 13.3934L14.9458 14.6975C14.9076 14.9151 14.6976 15.0915 14.4767 15.0915H10.6187C10.3978 15.0915 10.2496 14.9151 10.2878 14.6975L10.5301 13.3164ZM12.342 13.5904L14.0708 12.3149C14.1786 12.2321 14.2799 12.1471 14.3745 12.0598C14.4692 11.9724 14.5534 11.8782 14.6271 11.7771C14.7063 11.6714 14.7731 11.5564 14.8276 11.4323C14.8828 11.3036 14.9242 11.1611 14.9516 11.0049C14.9943 10.7612 14.9898 10.5475 14.9381 10.3637C14.891 10.1798 14.8056 10.0281 14.6819 9.9086C14.559 9.7845 14.4048 9.69257 14.2193 9.63281C14.0346 9.56846 13.8302 9.53629 13.6062 9.53629C13.3635 9.53629 13.1316 9.56846 12.9103 9.63281C12.6945 9.69257 12.4987 9.7845 12.3229 9.9086C12.1471 10.0327 11.996 10.189 11.8696 10.3774C11.8537 10.4008 11.8383 10.4246 11.8235 10.4491C11.7346 10.5953 11.6651 10.7613 11.615 10.9472C11.6075 10.9752 11.6004 11.0036 11.5937 11.0324L12.6304 11.1083C12.6751 10.9336 12.7615 10.7865 12.8898 10.667C13.0228 10.5475 13.1873 10.4878 13.3833 10.4878C13.5466 10.4878 13.6805 10.536 13.7849 10.6325C13.8901 10.7245 13.9282 10.8532 13.8992 11.0187C13.8734 11.1657 13.8018 11.2944 13.6844 11.4048C13.5671 11.5151 13.4517 11.6139 13.3384 11.7012L11.1147 13.4042L10.9223 14.5005H14.3803L14.54 13.5904H12.342Z" fill="#33375E"/>
<defs>
<linearGradient id="paint0_linear_18019_54172" x1="8" y1="0.582031" x2="8" y2="15.418" gradientUnits="userSpaceOnUse">
<stop stop-color="#ECD8D0"/>
<stop offset="0.46875" stop-color="#F8F1EC"/>
<stop offset="1" stop-color="#EDD2C7"/>
</linearGradient>
<linearGradient id="paint1_linear_18019_54172" x1="8.00042" y1="14.224" x2="8.00042" y2="4.20312" gradientUnits="userSpaceOnUse">
<stop stop-color="#E5B7AC"/>
<stop offset="1" stop-color="#FCF9F5"/>
</linearGradient>
</defs>
</svg>
