<svg width="16" height="16" viewBox="0 0 16 16" fill="none" xmlns="http://www.w3.org/2000/svg">
<path d="M9.675 1.14495C8.63851 0.546528 7.36149 0.546528 6.325 1.14495L2.90085 3.12188C1.86436 3.7203 1.22585 4.82623 1.22585 6.02307V9.97693C1.22585 11.1738 1.86436 12.2797 2.90085 12.8781L6.325 14.8551C7.36149 15.4535 8.63851 15.4535 9.675 14.8551L13.0991 12.8781C14.1356 12.2797 14.7741 11.1738 14.7741 9.97693V6.02307C14.7741 4.82623 14.1356 3.7203 13.0991 3.12188L9.675 1.14495Z" fill="#33375E" stroke="url(#paint0_linear_18019_54171)" stroke-width="0.7"/>
<path fill-rule="evenodd" clip-rule="evenodd" d="M4.7762 4.20525L6.394 4.20525C6.4605 4.20525 6.52266 4.2383 6.55985 4.29344L7.85332 6.21137C7.93277 6.32918 8.10626 6.32892 8.18531 6.21088L9.47048 4.29181C9.5076 4.23639 9.56991 4.20312 9.63663 4.20313L11.2028 4.20313C11.3664 4.20313 11.4609 4.38898 11.3643 4.52112L8.17352 8.88906C8.09397 8.99795 7.93165 8.99849 7.85134 8.89013L4.61557 4.52431C4.51775 4.39232 4.61193 4.20525 4.7762 4.20525ZM8.94665 12.4005H7.14818C7.08394 12.4005 7.02369 12.3697 6.98622 12.3176L3.04145 6.83373C2.99977 6.77579 2.99223 6.69994 3.02166 6.63475L3.71741 5.09372C3.78071 4.95351 3.97176 4.93376 4.06177 5.05812L7.84966 10.2914C7.93003 10.4024 8.09601 10.4011 8.17516 10.2888L11.878 5.03427C11.966 4.90934 12.1557 4.9248 12.2217 5.06228L12.9766 6.63451C13.0079 6.69971 13.0014 6.77683 12.9598 6.83614L9.11071 12.3152C9.07315 12.3687 9.01191 12.4005 8.94665 12.4005Z" fill="url(#paint1_linear_18019_54171)"/>
<path d="M13.2491 10.7755L12.1039 11.6373L11.6274 10.9617L13.4803 9.61719H14.4603L13.6039 14.4986H12.5959L13.2491 10.7755Z" fill="white"/>
<path fill-rule="evenodd" clip-rule="evenodd" d="M13.8583 9.61832C14.1897 9.61832 14.4119 9.88291 14.3546 10.2093L13.689 14.0034C13.641 14.2775 13.3763 14.4998 13.098 14.4998C12.8196 14.4998 12.633 14.2775 12.681 14.0034L13.0899 11.6729C13.151 11.3243 12.7663 11.1385 12.4602 11.3688C12.2627 11.5174 12.0043 11.5001 11.8845 11.3302L11.8644 11.3017C11.7329 11.1152 11.8048 10.8326 12.0242 10.6734L13.2862 9.75771C13.4103 9.6677 13.556 9.61832 13.6977 9.61832H13.8583ZM12.3463 12.4911C12.3741 12.3328 12.1994 12.2485 12.0605 12.353C11.9709 12.4205 11.8536 12.4126 11.7992 12.3355L11.1043 11.35C10.9287 11.1011 11.0247 10.7237 11.3176 10.5112L13.1705 9.16673C13.2945 9.07672 13.4403 9.02734 13.582 9.02734H14.562C14.8933 9.02734 15.1156 9.29193 15.0583 9.61832L14.202 14.4998C14.1447 14.8262 13.8297 15.0908 13.4983 15.0908H12.4903C12.1589 15.0908 11.9367 14.8262 11.994 14.4998L12.3463 12.4911Z" fill="#33375E"/>
<defs>
<linearGradient id="paint0_linear_18019_54171" x1="8" y1="0.582031" x2="8" y2="15.418" gradientUnits="userSpaceOnUse">
<stop stop-color="#A1D1F1"/>
<stop offset="0.489583" stop-color="#E4F5FA"/>
<stop offset="1" stop-color="#E2F4F8"/>
</linearGradient>
<linearGradient id="paint1_linear_18019_54171" x1="8.09171" y1="13.1184" x2="8.09171" y2="3.40694" gradientUnits="userSpaceOnUse">
<stop stop-color="#92BFFE"/>
<stop offset="0.524063" stop-color="#BFD6F9"/>
<stop offset="0.994792" stop-color="#F8FDFE"/>
</linearGradient>
</defs>
</svg>
