<svg width="40" height="16" viewBox="0 0 40 16" fill="none" xmlns="http://www.w3.org/2000/svg">
<path d="M13.7456 4.49268C14.1186 3.94954 14.7353 3.625 15.3942 3.625H37.2641C38.2964 3.625 39.0201 4.64339 38.6807 5.61824L36.3422 12.3346C36.0623 13.1384 35.3044 13.677 34.4534 13.677H7.43745L13.7456 4.49268Z" fill="url(#paint0_linear_15615_115616)"/>
<path d="M17.0253 11.5993C16.3701 11.5993 15.8689 11.4733 15.5217 11.2213C15.1801 10.9693 15.0093 10.5913 15.0093 10.0873C15.0093 10.0145 15.0149 9.93332 15.0261 9.84373C15.0373 9.74853 15.0569 9.63093 15.0849 9.49093H16.5213C16.4989 9.60293 16.4849 9.69253 16.4793 9.75973C16.4737 9.82693 16.4709 9.88013 16.4709 9.91932C16.4709 10.0929 16.5185 10.2217 16.6137 10.3057C16.7145 10.3841 16.8713 10.4233 17.0841 10.4233C17.3249 10.4233 17.5237 10.3477 17.6805 10.1965C17.8429 10.0453 17.9521 9.81293 18.0081 9.49933L18.6717 5.72775H20.1753L19.5117 9.53293C19.4277 10.0145 19.2737 10.4093 19.0497 10.7173C18.8313 11.0197 18.5513 11.2437 18.2097 11.3893C17.8681 11.5293 17.4733 11.5993 17.0253 11.5993Z" fill="#432598"/>
<path d="M22.1147 11.4985L22.5179 9.21373L20.8715 5.72775H22.4927L23.4587 7.89494H23.5007L25.1891 5.72775H26.8774L24.0215 9.21373L23.6183 11.4985H22.1147Z" fill="#432598"/>
<path d="M26.5366 11.4985L26.7886 10.0957H28.2418L27.9898 11.4985H26.5366Z" fill="#432598"/>
<path d="M28.9756 11.4985L29.0428 11.1541C29.0932 10.8797 29.1968 10.6277 29.3536 10.3981C29.5104 10.1685 29.698 9.95573 29.9164 9.75973C30.1404 9.56373 30.3784 9.37893 30.6304 9.20533C30.8824 9.03173 31.1288 8.86653 31.3696 8.70973C31.616 8.54733 31.84 8.38493 32.0416 8.22254C32.2488 8.06014 32.4112 7.89494 32.5288 7.72694C32.652 7.55894 32.7136 7.38254 32.7136 7.19774C32.7136 7.06334 32.6604 6.94014 32.554 6.82815C32.4532 6.71615 32.2796 6.66015 32.0332 6.66015C31.8428 6.66015 31.6748 6.69655 31.5292 6.76935C31.3892 6.83655 31.2744 6.93174 31.1848 7.05494C31.1008 7.17814 31.042 7.32374 31.0084 7.49174L30.9664 7.74374H29.6728C29.7064 7.37414 29.7904 7.05494 29.9248 6.78615C30.0648 6.51735 30.2468 6.29895 30.4708 6.13095C30.7004 5.95735 30.958 5.83135 31.2436 5.75295C31.5348 5.66895 31.8428 5.62695 32.1676 5.62695C32.6044 5.62695 32.9656 5.69415 33.2512 5.82855C33.5424 5.96295 33.758 6.14495 33.898 6.37455C34.038 6.59855 34.108 6.84775 34.108 7.12214C34.108 7.36854 34.066 7.59814 33.982 7.81094C33.9036 8.01814 33.7944 8.21134 33.6544 8.39054C33.5144 8.56413 33.3548 8.72653 33.1756 8.87773C32.9964 9.02893 32.8088 9.17173 32.6128 9.30613C32.4168 9.43493 32.2208 9.56093 32.0248 9.68413C31.8288 9.80733 31.644 9.93052 31.4704 10.0537C31.42 10.0873 31.3668 10.1293 31.3108 10.1797C31.2548 10.2245 31.21 10.2665 31.1764 10.3057H33.6124L33.4024 11.4985H28.9756Z" fill="#432598"/>
<path d="M7.53862 3.69241V1L10.0515 2.61545L7.53862 3.69241Z" fill="url(#paint1_linear_15615_115616)"/>
<path d="M7.53862 3.69241V1L5.0257 2.61545L7.53862 3.69241Z" fill="url(#paint2_linear_15615_115616)"/>
<path d="M11.0567 3.1543L7.53862 4.76975V6.92368L12.5645 4.23126L11.0567 3.1543Z" fill="url(#paint3_linear_15615_115616)"/>
<path d="M4.02053 3.1543L7.53862 4.76975V6.92368L2.51278 4.23126L4.02053 3.1543Z" fill="url(#paint4_linear_15615_115616)"/>
<path d="M7.53876 8.00043L1.50775 4.76953L0 5.8465L7.53876 10.1544V8.00043Z" fill="url(#paint5_linear_15615_115616)"/>
<path d="M7.53848 8.00043L13.5695 4.76953L15.0772 5.8465L7.53848 10.1544V8.00043Z" fill="url(#paint6_linear_15615_115616)"/>
<path d="M7.53876 14.9999V10.1536L0 5.8457L7.53876 14.9999Z" fill="url(#paint7_linear_15615_115616)"/>
<path d="M7.53848 14.9999V10.1536L15.0772 5.8457L7.53848 14.9999Z" fill="url(#paint8_linear_15615_115616)"/>
<defs>
<linearGradient id="paint0_linear_15615_115616" x1="23.6245" y1="14.5624" x2="15.3121" y2="3.625" gradientUnits="userSpaceOnUse">
<stop stop-color="#AEACF8"/>
<stop offset="0.291667" stop-color="#C4C2FF"/>
<stop offset="1" stop-color="#E9E9FF"/>
</linearGradient>
<linearGradient id="paint1_linear_15615_115616" x1="7.16168" y1="3.26163" x2="9.2139" y2="1.83764" gradientUnits="userSpaceOnUse">
<stop stop-color="#7165FF"/>
<stop offset="1" stop-color="#C8C4FF"/>
</linearGradient>
<linearGradient id="paint2_linear_15615_115616" x1="7.53862" y1="2.25646" x2="5.86334" y2="1.83764" gradientUnits="userSpaceOnUse">
<stop stop-color="#8E84FF"/>
<stop offset="1" stop-color="#CCCBFF"/>
</linearGradient>
<linearGradient id="paint3_linear_15615_115616" x1="7.53862" y1="5.60668" x2="11.7268" y2="3.51258" gradientUnits="userSpaceOnUse">
<stop stop-color="#745FF1"/>
<stop offset="1" stop-color="#B8ACFF"/>
</linearGradient>
<linearGradient id="paint4_linear_15615_115616" x1="3.35042" y1="3.51258" x2="7.53862" y2="5.60668" gradientUnits="userSpaceOnUse">
<stop stop-color="#A69EFF"/>
<stop offset="1" stop-color="#907EFF"/>
</linearGradient>
<linearGradient id="paint5_linear_15615_115616" x1="0.83764" y1="5.60717" x2="7.53876" y2="8.95773" gradientUnits="userSpaceOnUse">
<stop stop-color="#9086FF"/>
<stop offset="1" stop-color="#7E69FF"/>
</linearGradient>
<linearGradient id="paint6_linear_15615_115616" x1="7.53848" y1="8.95773" x2="14.2396" y2="5.18835" gradientUnits="userSpaceOnUse">
<stop stop-color="#5A3FFF"/>
<stop offset="1" stop-color="#C6C5FF"/>
</linearGradient>
<linearGradient id="paint7_linear_15615_115616" x1="5.02584" y1="8.85311" x2="7.53876" y2="14.1931" gradientUnits="userSpaceOnUse">
<stop stop-color="#6149F1"/>
<stop offset="1" stop-color="#D4D0FF"/>
</linearGradient>
<linearGradient id="paint8_linear_15615_115616" x1="10.4702" y1="11.4703" x2="8.66929" y2="9.66956" gradientUnits="userSpaceOnUse">
<stop stop-color="#BDB7FF"/>
<stop offset="1" stop-color="#5143F0"/>
</linearGradient>
</defs>
</svg>
